<?xml version="1.0" encoding="UTF-8" standalone="no"?>
<!-- Created with Inkscape (http://www.inkscape.org/) -->
<svg id="svg5719" xmlns:rdf="http://www.w3.org/1999/02/22-rdf-syntax-ns#" xmlns="http://www.w3.org/2000/svg" height="25" width="13" version="1.0" xmlns:cc="http://creativecommons.org/ns#" xmlns:dc="http://purl.org/dc/elements/1.1/">
 <defs id="defs5721"></defs>
 <metadata id="metadata5724">
  <rdf:RDF>
   <cc:Work rdf:about="">
    <dc:format>image/svg+xml</dc:format>
    <dc:type rdf:resource="http://purl.org/dc/dcmitype/StillImage"/>
    <dc:title/>
   </cc:Work>
  </rdf:RDF>
 </metadata>
 <g id="layer1" transform="translate(-132.83585,-757.86914)">
  <path id="text5932" style="text-align:start;" fill="#000" d="M144.84,775.34c-2.34,1.61-4.04,3.84-5.08,6.7h-0.85c-1.04-2.86-2.73-5.09-5.08-6.7v-1.23c1.65,0.55,3.2,1.48,4.65,2.78v-13.05c-1.45,1.31-3,2.24-4.65,2.79v-1.24c2.35-1.6,4.04-3.84,5.08-6.69h0.85c1.04,2.85,2.74,5.09,5.08,6.69v1.24c-1.66-0.55-3.21-1.48-4.67-2.79v13.05c1.46-1.3,3.01-2.23,4.67-2.78v1.23z"/>
 </g>
</svg>
